<svg xmlns="http://www.w3.org/2000/svg" xmlns:xlink="http://www.w3.org/1999/xlink" width="350" height="160" viewBox="0 0 350 160">
  <title></title><defs>
    <linearGradient id="linear-gradient" x1="281.5" x2="291.83" y1="114.63" y2="114.63" gradientUnits="userSpaceOnUse">
      <stop offset="0" stop-color="#fff"/>
      <stop offset="1"/>
    </linearGradient>
    <linearGradient xlink:href="#linear-gradient" id="linear-gradient-2" x1="270.34" x2="283.31" y1="104.86" y2="104.86"/>
    <style>
      .cls-1,.cls-10,.cls-13,.cls-2,.cls-4{fill:none}.cls-1{stroke:#f9a2a2}.cls-1,.cls-10,.cls-4{stroke-linecap:round}.cls-1,.cls-2{stroke-linejoin:round;stroke-width:27px}.cls-2{stroke:#f4c38e}.cls-3{fill:#f4c38e}.cls-10,.cls-13,.cls-4{stroke:#000}.cls-13,.cls-4{stroke-miterlimit:10}.cls-10,.cls-13,.cls-4{stroke-width:1.5px}.cls-5{fill:#f9cdcd}.cls-6{fill:#fff}.cls-7{fill:#dbdbde}.cls-9{fill:#f9a2a2}.cls-11{fill:#b07156}.cls-15{fill:#eeeeef}.cls-18{fill:#c9c8cd}.cls-19{fill:#a3a1aa}
    </style>
  </defs>
  <path d="m212.15 85.87-13.49 46.31h-22.84" class="cls-1"/>
  <path d="M187.18 132.18h-25.27" class="cls-2"/>
  <path d="M158.29 118.64h5v27.05h-31.51v-.54a26.51 26.51 0 0 1 26.51-26.51Z" class="cls-3"/>
  <path d="M152.43 145.43s-.52-5.16 3.72-6.75" class="cls-4"/>
  <path d="M153.6 141s-.58 3.89 4.44 3.89M140 132.67a23.29 23.29 0 0 0-3.59 12.48M145.28 132.67a23.37 23.37 0 0 0-3.59 12.48M150.8 132.67a23.29 23.29 0 0 0-3.59 12.48" class="cls-4"/>
  <path d="M173.34 116h14.33a1 1 0 0 1 1 1v28.72h-16.33V117a1 1 0 0 1 1-1Z" class="cls-5"/>
  <path d="m204.85 146.77-.64-65.42a9.47 9.47 0 0 1 9.45-9.45h65.92a15.22 15.22 0 0 1 15.18 15.18l.65 59.69Z" class="cls-6"/>
  <path d="M205.87 88.26h86.79v1.67h-86.79zM205.87 96.35h86.79v1.67h-86.79zM205.87 104.45h86.79v1.67h-86.79zM205.87 112.54h86.79v1.67h-86.79zM205.87 120.63h86.79v1.67h-86.79z" class="cls-7"/>
  <path fill="none" stroke="#f43939" stroke-miterlimit="10" stroke-width="2" d="M257.13 73a35.68 35.68 0 0 1 2 11.87c0 13.61-7.1 24.64-15.86 24.64s-15.85-11-15.85-24.64a35.94 35.94 0 0 1 2-11.87"/>
  <path d="M232.76 71.9h-19.1a9.47 9.47 0 0 0-9.45 9.45l.64 65.42h13.46ZM279.58 71.9h-24.31l14.54 74.87h25.6l-.65-59.69a15.22 15.22 0 0 0-15.18-15.18Z" class="cls-9"/>
  <path d="M210.25 132.67v-28.32" class="cls-10"/>
  <path d="M256.78 10.27h2.39a11.93 11.93 0 0 1 11.92 11.93V59a1 1 0 0 1-1 1h-6.88a18.36 18.36 0 0 1-18.36-18.36V22.2a11.93 11.93 0 0 1 11.93-11.93Z" class="cls-11"/>
  <path d="M238.65 9h-3.47a16.51 16.51 0 0 0-16.55 16.56l.11 24.77a14.19 14.19 0 0 0 14.24 14h22.38l-.17-39A16.52 16.52 0 0 0 238.65 9Z" class="cls-3"/>
  <path d="M244.19 84.45A11.18 11.18 0 0 1 233 73.27V45.52h22.29l.05 27.73a11.17 11.17 0 0 1-11.15 11.2Z" class="cls-3"/>
  <circle cx="234.8" cy="37.92" r="1.37"/>
  <circle cx="222.65" cy="37.92" r="1.38"/>
  <path d="M226.59 41.26a26.47 26.47 0 0 1-2.76 4.93 1.28 1.28 0 0 0-.22 1.22 1.27 1.27 0 0 0 .9.85 18.35 18.35 0 0 0 3.92.21M224.43 31.71a5.5 5.5 0 0 0-5 .2M237.71 31.91a6 6 0 0 0-5.4 0" class="cls-10"/>
  <path d="M245.9 9.91a9 9 0 0 1 7.83-.63c4.47 1.68 5.52 10.33 2.34 13Z" class="cls-9"/>
  <path d="M219.61 20a16.53 16.53 0 0 1 15.57-11h3.92c11.76 0 17.54 6.62 16.93 17.3-.58 9.87-.77 15-.77 15h-3.93c-3.36-1.14-2.74-3.91-2.74-5.86s-1-3.35-2.77-4.76-2.85-2.29-2.85-6a5.37 5.37 0 0 0-3.64-5.1c-5.96-1.93-14.82-2.04-19.72.42Z" class="cls-11"/>
  <path d="M229.23 55.72s6.61-.12 9.07-3.74" class="cls-10"/>
  <path fill="none" stroke="#000" stroke-linecap="square" stroke-width="1.5" d="M233.86 65.2h4.67"/>
  <path d="M241.27 37.03h14.33" class="cls-10"/>
  <path d="M231.67 34.05h8.59a1 1 0 0 1 1 1v4.19a5.3 5.3 0 0 1-5.3 5.3 5.3 5.3 0 0 1-5.3-5.3v-4.19a1 1 0 0 1 1-1ZM217.1 34.05h8.59a1 1 0 0 1 1 1v4.19a5.3 5.3 0 0 1-5.3 5.3 5.3 5.3 0 0 1-5.3-5.3v-4.19a1 1 0 0 1 1-1Z" class="cls-13"/>
  <ellipse cx="255.27" cy="40.35" class="cls-3" rx="6.73" ry="6.71"/>
  <path d="m252.18 40.83 5.18-4.26M247 10.26c6.45 2.4 9.53 8.1 9.08 16q-.19 3.28-.33 5.87" class="cls-10"/>
  <circle cx="256.76" cy="47.05" r="2.79" class="cls-6"/>
  <g id="Layer_16" data-name="Layer 16">
    <path d="M19.34 132.44h311.33v22.34H19.34z" class="cls-6"/>
    <path fill="none" stroke="#b6b5bc" stroke-linecap="round" stroke-miterlimit="10" stroke-width="1.5" d="M19.33 132.44h311.34"/>
  </g>
  <path d="M234.13 130.54h14.44a3.72 3.72 0 0 1 3.72 3.72V143a3.72 3.72 0 0 1-3.72 3.72H217.9a16.23 16.23 0 0 1 16.23-16.18Z" class="cls-15"/>
  <path d="m281.36 85.87 24.84 42.3h-43.53" class="cls-1"/>
  <path d="M285.27 128.17h-36.51" class="cls-2"/>
  <path d="M245.13 114.63h5v27.05h-31.5v-.54a26.51 26.51 0 0 1 26.51-26.51Z" class="cls-3"/>
  <path fill="url(#linear-gradient)" stroke="#000" stroke-linecap="round" stroke-width="1.5" d="M281.5 114.63h10.33"/>
  <path fill="url(#linear-gradient-2)" stroke="#000" stroke-linecap="round" stroke-width="1.5" d="m270.34 94.12 12.97 21.49"/>
  <path d="M239.27 141.42s-.51-5.16 3.72-6.75" class="cls-4"/>
  <path d="M240.44 137s-.58 3.89 4.45 3.89M226.83 128.66a23.29 23.29 0 0 0-3.6 12.48M232.13 128.66a23.29 23.29 0 0 0-3.6 12.48M237.65 128.66a23.29 23.29 0 0 0-3.6 12.48" class="cls-4"/>
  <path d="M270.18 112h14.32a1 1 0 0 1 1 1v28.72h-16.32V113a1 1 0 0 1 1-1Z" class="cls-5"/>
  <rect width="115.11" height="76.19" x="89.1" y="47.06" class="cls-15" rx="5.93"/>
  <rect width="109.39" height="76.19" x="89.1" y="47.06" class="cls-7" rx="5.93"/>
  <path d="M123.79 139.41v-42.7A2.44 2.44 0 0 1 125.9 94h25.89a2.45 2.45 0 0 1 2.12 2.67v42.7a1.23 1.23 0 0 1-1.07 1.35h-28a1.23 1.23 0 0 1-1.05-1.31Z" class="cls-18"/>
  <path d="M146.64 96.71v42.7a1.23 1.23 0 0 1-1.07 1.35h-20.72a1.23 1.23 0 0 1-1.06-1.35v-42.7A2.44 2.44 0 0 1 125.9 94h18.62a2.45 2.45 0 0 1 2.12 2.71Z" class="cls-19"/>
  <path d="M114.5 140.46h63.21v6.09H114.5z" class="cls-18"/>
  <path d="M99.99 140.46h63.21v6.09H99.99z" class="cls-19"/>
  <path d="M56.36 110.7a21.73 21.73 0 0 1 21.73 21.73v8H34.63v-8a21.73 21.73 0 0 1 21.73-21.73ZM85.3938 32.979l4.8437 4.8437a.23.23 0 0 1 0 .3252L68.5223 59.8632a.23.23 0 0 1-.3253 0l-4.8437-4.8437a15.58 15.58 0 0 1-.0283-22.0617 15.58 15.58 0 0 1 22.0688.0212Z" class="cls-15"/>
  <path d="m65.9795 21.5772 12.3602 12.3602a.85.85 0 0 1 0 1.2021L65.52 47.9594a.85.85 0 0 1-1.2021 0L51.9576 35.599a9.91 9.91 0 0 1 0-14.0148 9.91 9.91 0 0 1 14.0148 0Z" class="cls-15"/>
  <path d="m51.121 17.9968 2.3758 2.3759a.16.16 0 0 1 0 .2262l-2.4607 2.4608a.16.16 0 0 1-.2263 0l-2.3759-2.376a1.9 1.9 0 0 1 0-2.687 1.9 1.9 0 0 1 2.687 0Z" class="cls-15"/>
  <path fill="none" stroke="#eeeeef" stroke-miterlimit="10" stroke-width="2" d="M56.36 125.58 27.9 86.28a11.89 11.89 0 0 1 .54-14.65l33.5-39.72"/>
</svg>
